<svg width="428" height="926" viewBox="0 0 428 926" fill="none" xmlns="http://www.w3.org/2000/svg">
<rect width="428" height="926" fill="#00081E"/>
<g filter="url(#filter0_d_121_122)">
<path d="M248 631.608H185.408V592.152H197.312V617.496H211.808V595.8H223.712V617.496H248V631.608ZM248 581.264H185.408V567.152H248V581.264ZM248 519.858H185.408V497.298C185.408 492.882 186.016 488.85 187.232 485.202C188.384 481.554 190.368 478.642 193.184 476.466C196 474.29 199.904 473.202 204.896 473.202C209.504 473.202 213.312 474.226 216.32 476.274C219.264 478.258 221.472 480.946 222.944 484.338L248 470.13V485.97L225.44 497.97V505.746H248V519.858ZM214.208 505.746V498.45C214.208 494.738 213.44 491.922 211.904 490.002C210.304 488.018 207.968 487.026 204.896 487.026C201.824 487.026 199.68 488.018 198.464 490.002C197.248 491.922 196.64 494.738 196.64 498.45V505.746H214.208ZM248 460.983H185.408V421.815H197.312V446.871H209.888V425.559H221.696V446.871H236.096V420.855H248V460.983Z" fill="#FFB699"/>
<path d="M263.36 558.533L179.84 539.237V530.021L263.36 549.317V558.533ZM249.152 376.018C249.152 381.202 247.456 384.978 244.064 387.346C240.608 389.65 235.904 390.802 229.952 390.802H200.384V376.69H228.128C231.52 376.69 233.888 376.21 235.232 375.25C236.512 374.29 237.152 372.786 237.152 370.738C237.152 368.946 236.736 367.442 235.904 366.226C235.072 365.01 233.728 363.698 231.872 362.29H200.384L200.384 348.178H248V359.698L241.376 360.754V361.042C243.744 363.026 245.632 365.202 247.04 367.57C248.448 369.938 249.152 372.754 249.152 376.018ZM265.664 335.76H200.384V324.24L205.088 323.28V322.896C203.424 321.04 202.048 318.96 200.96 316.656C199.808 314.288 199.232 311.856 199.232 309.36C199.232 303.6 201.44 299.056 205.856 295.728C210.208 292.4 216.064 290.736 223.424 290.736C228.864 290.736 233.504 291.696 237.344 293.616C241.184 295.536 244.128 298.032 246.176 301.104C248.16 304.112 249.152 307.344 249.152 310.8C249.152 312.848 248.736 314.832 247.904 316.752C247.008 318.672 245.76 320.464 244.16 322.128L251.744 321.648H265.664V335.76ZM237.632 314.064C237.632 311.632 236.512 309.552 234.272 307.824C232.032 306.096 228.48 305.232 223.616 305.232C215.04 305.232 210.752 307.984 210.752 313.488C210.752 316.24 212.192 318.96 215.072 321.648H234.56C235.712 320.368 236.512 319.088 236.96 317.808C237.408 316.528 237.632 315.28 237.632 314.064Z" fill="#FFB699"/>
<path d="M263.36 558.533L179.84 539.237V530.021L263.36 549.317V558.533ZM249.152 376.018C249.152 381.202 247.456 384.978 244.064 387.346C240.608 389.65 235.904 390.802 229.952 390.802H200.384V376.69H228.128C231.52 376.69 233.888 376.21 235.232 375.25C236.512 374.29 237.152 372.786 237.152 370.738C237.152 368.946 236.736 367.442 235.904 366.226C235.072 365.01 233.728 363.698 231.872 362.29H200.384L200.384 348.178H248V359.698L241.376 360.754V361.042C243.744 363.026 245.632 365.202 247.04 367.57C248.448 369.938 249.152 372.754 249.152 376.018ZM265.664 335.76H200.384V324.24L205.088 323.28V322.896C203.424 321.04 202.048 318.96 200.96 316.656C199.808 314.288 199.232 311.856 199.232 309.36C199.232 303.6 201.44 299.056 205.856 295.728C210.208 292.4 216.064 290.736 223.424 290.736C228.864 290.736 233.504 291.696 237.344 293.616C241.184 295.536 244.128 298.032 246.176 301.104C248.16 304.112 249.152 307.344 249.152 310.8C249.152 312.848 248.736 314.832 247.904 316.752C247.008 318.672 245.76 320.464 244.16 322.128L251.744 321.648H265.664V335.76ZM237.632 314.064C237.632 311.632 236.512 309.552 234.272 307.824C232.032 306.096 228.48 305.232 223.616 305.232C215.04 305.232 210.752 307.984 210.752 313.488C210.752 316.24 212.192 318.96 215.072 321.648H234.56C235.712 320.368 236.512 319.088 236.96 317.808C237.408 316.528 237.632 315.28 237.632 314.064Z" fill="#ACDEAA"/>
</g>
<defs>
<filter id="filter0_d_121_122" x="175.84" y="290.736" width="93.824" height="348.872" filterUnits="userSpaceOnUse" color-interpolation-filters="sRGB">
<feFlood flood-opacity="0" result="BackgroundImageFix"/>
<feColorMatrix in="SourceAlpha" type="matrix" values="0 0 0 0 0 0 0 0 0 0 0 0 0 0 0 0 0 0 127 0" result="hardAlpha"/>
<feOffset dy="4"/>
<feGaussianBlur stdDeviation="2"/>
<feComposite in2="hardAlpha" operator="out"/>
<feColorMatrix type="matrix" values="0 0 0 0 0 0 0 0 0 0 0 0 0 0 0 0 0 0 0.25 0"/>
<feBlend mode="normal" in2="BackgroundImageFix" result="effect1_dropShadow_121_122"/>
<feBlend mode="normal" in="SourceGraphic" in2="effect1_dropShadow_121_122" result="shape"/>
</filter>
</defs>
</svg>
